<svg width="11" height="13" viewBox="0 0 11 13" fill="none" xmlns="http://www.w3.org/2000/svg">
<path d="M1.54 0.0140152C1.54933 0.0140152 1.58667 0.0140152 1.652 0.0140152C2.42667 0.00468159 3.136 1.52588e-05 3.78 1.52588e-05H5.614C5.80067 1.52588e-05 5.922 0.00468159 5.978 0.0140152C6.034 0.0233479 6.08067 0.0373478 6.118 0.056015L6.132 0.070015C6.17867 0.0980148 6.71067 0.620682 7.728 1.63801C8.74533 2.65535 9.26567 3.18968 9.289 3.24102C9.31233 3.29235 9.32867 3.34135 9.338 3.38801C9.34733 3.46268 9.352 3.61202 9.352 3.83602V4.94202C9.352 5.95002 9.34733 6.46802 9.338 6.49602C9.30067 6.70135 9.20267 6.84602 9.044 6.93002C8.88533 7.01402 8.71967 7.02568 8.547 6.96502C8.37433 6.90435 8.26 6.78068 8.204 6.59402C8.19467 6.55668 8.18533 6.47268 8.176 6.34202V4.08802H7.252C6.608 4.08802 6.26733 4.08335 6.23 4.07402C6.01533 4.03668 5.824 3.94335 5.656 3.79401C5.488 3.64468 5.37133 3.46735 5.306 3.26202C5.28733 3.17801 5.27333 3.05668 5.264 2.89802C5.25467 2.73935 5.25 2.44535 5.25 2.01602V1.17601H3.43L1.624 1.19001C1.512 1.23668 1.43267 1.28335 1.386 1.33002C1.29267 1.40468 1.232 1.50268 1.204 1.62401C1.18533 1.71735 1.176 3.12202 1.176 5.83802C1.176 8.55402 1.18533 9.95868 1.204 10.052C1.232 10.1733 1.29267 10.2713 1.386 10.346C1.43267 10.3927 1.512 10.4393 1.624 10.486L3.066 10.5C3.71933 10.5 4.144 10.5047 4.34 10.514C4.47067 10.514 4.55467 10.5233 4.592 10.542C4.732 10.598 4.83467 10.689 4.9 10.815C4.96533 10.941 4.984 11.074 4.956 11.214C4.928 11.354 4.85333 11.466 4.732 11.55L4.704 11.578C4.65733 11.606 4.61067 11.627 4.564 11.641C4.51733 11.655 4.41467 11.662 4.256 11.662H2.044C1.68 11.662 1.47467 11.6573 1.428 11.648C1.092 11.5733 0.798 11.4147 0.546 11.172C0.275333 10.92 0.102667 10.6073 0.028 10.234C0.0186667 10.1687 0.00933333 9.92602 0 9.50602V2.17002C0.00933333 1.75002 0.0186667 1.50735 0.028 1.44201C0.056 1.26468 0.126 1.07802 0.238 0.882015C0.378 0.658015 0.546 0.476015 0.742 0.336015C0.984667 0.158682 1.25067 0.0513487 1.54 0.0140152ZM6.426 2.00202V2.91201H7.336L6.888 2.45002L6.426 2.00202ZM8.036 7.60202C7.896 7.63935 7.784 7.72335 7.7 7.85402C7.616 7.98468 7.58333 8.12002 7.602 8.26002C7.61133 8.35335 7.64167 8.42802 7.693 8.48402C7.74433 8.54002 7.882 8.68468 8.106 8.91802L8.512 9.33802H5.936C5.796 9.34735 5.70733 9.35668 5.67 9.36602C5.54867 9.40335 5.45067 9.47335 5.376 9.57602C5.30133 9.67868 5.264 9.79535 5.264 9.92602C5.264 10.0567 5.299 10.171 5.369 10.269C5.439 10.367 5.53467 10.4393 5.656 10.486C5.69333 10.4953 5.782 10.5047 5.922 10.514H8.498L8.092 10.92C7.868 11.144 7.735 11.2863 7.693 11.347C7.651 11.4077 7.62067 11.4847 7.602 11.578C7.574 11.7273 7.602 11.8627 7.686 11.984C7.77 12.1053 7.88433 12.1893 8.029 12.236C8.17367 12.2827 8.30667 12.2687 8.428 12.194C8.52133 12.138 8.876 11.8043 9.492 11.193C10.108 10.5817 10.43 10.2387 10.458 10.164C10.5047 10.0707 10.5187 9.95868 10.5 9.82802V9.81402C10.4813 9.74868 10.4557 9.69035 10.423 9.63902C10.3903 9.58768 10.304 9.48735 10.164 9.33802L9.464 8.63802C9.072 8.24602 8.82467 7.99868 8.722 7.89602C8.56333 7.75602 8.45133 7.66735 8.386 7.63002C8.33933 7.60202 8.274 7.58802 8.19 7.58802C8.106 7.58802 8.05467 7.59268 8.036 7.60202Z" fill="#212121"/>
</svg>
