<svg width="16" height="16" viewBox="0 0 16 16" fill="none" xmlns="http://www.w3.org/2000/svg">
<path d="M13 4V7.5M13 7.5L14.5 6M13 7.5L11.5 6M2.5 14V13.5C2.5 12.4391 2.92143 11.4217 3.67157 10.6716C4.42172 9.92143 5.43913 9.5 6.5 9.5H7.5C8.56087 9.5 9.57828 9.92143 10.3284 10.6716C11.0786 11.4217 11.5 12.4391 11.5 13.5V14M9.5 5C9.5 5.66304 9.23661 6.29893 8.76777 6.76777C8.29893 7.23661 7.66304 7.5 7 7.5C6.33696 7.5 5.70107 7.23661 5.23223 6.76777C4.76339 6.29893 4.5 5.66304 4.5 5C4.5 4.33696 4.76339 3.70107 5.23223 3.23223C5.70107 2.76339 6.33696 2.5 7 2.5C7.66304 2.5 8.29893 2.76339 8.76777 3.23223C9.23661 3.70107 9.5 4.33696 9.5 5Z" stroke="#A1A1A1" stroke-linejoin="round"/>
</svg>
