<svg width="11" height="11" viewBox="0 0 11 11" fill="none" xmlns="http://www.w3.org/2000/svg">
<path d="M4.74527 0.0134325C5.99327 -0.0299006 7.00293 0.0307655 7.77427 0.195433C8.58027 0.368766 9.21077 0.676433 9.66577 1.11843C10.1208 1.56043 10.4393 2.1801 10.6213 2.97743C10.7946 3.72277 10.8639 4.70643 10.8293 5.92843C10.7946 6.89043 10.6993 7.64443 10.5433 8.19043C10.3439 8.9011 10.0059 9.45577 9.52927 9.85443C8.99193 10.3138 8.2336 10.6084 7.25427 10.7384C6.7776 10.8078 6.20993 10.8446 5.55127 10.8489C4.8926 10.8533 4.31193 10.8251 3.80927 10.7644C2.80393 10.6604 2.01093 10.3918 1.43027 9.95843C0.918932 9.55977 0.550599 9.0051 0.325265 8.29443C0.143265 7.7051 0.0392653 6.91643 0.0132653 5.92843C-0.030068 4.75843 0.0327653 3.79643 0.201765 3.04243C0.370765 2.28843 0.650265 1.69043 1.04027 1.24843C1.41293 0.832433 1.9156 0.524766 2.54827 0.325433C3.1116 0.1521 3.84393 0.0480995 4.74527 0.0134325ZM5.42127 9.75043C6.35727 9.75043 7.08527 9.6941 7.60527 9.58143C8.17727 9.4601 8.6171 9.2456 8.92477 8.93793C9.23243 8.63027 9.45127 8.19043 9.58127 7.61843C9.69393 7.08977 9.75027 6.35743 9.75027 5.42143C9.75027 4.53743 9.69827 3.83543 9.59427 3.31543C9.4816 2.76077 9.29527 2.3296 9.03527 2.02193C8.77527 1.71427 8.40693 1.4911 7.93027 1.35243C7.5056 1.22243 6.9206 1.1401 6.17527 1.10543C5.34327 1.07077 4.6196 1.0881 4.00427 1.15743C3.23293 1.23543 2.6566 1.39143 2.27527 1.62543C1.98927 1.79877 1.7596 2.03927 1.58627 2.34693C1.41293 2.6546 1.28727 3.05543 1.20927 3.54943C1.13127 4.04343 1.09227 4.66743 1.09227 5.42143C1.09227 6.37477 1.15727 7.1266 1.28727 7.67693C1.41727 8.22727 1.62527 8.64543 1.91127 8.93143C2.17127 9.19143 2.5396 9.38643 3.01627 9.51643C3.58827 9.67243 4.38993 9.75043 5.42127 9.75043ZM5.29127 3.26343C5.18727 3.28943 5.09843 3.34143 5.02477 3.41943C4.9511 3.49743 4.9056 3.58843 4.88827 3.69243C4.8796 3.71843 4.87527 3.92643 4.87527 4.31643V4.87543H4.31627C3.92627 4.87543 3.71827 4.87977 3.69227 4.88843C3.51027 4.93177 3.3846 5.03143 3.31527 5.18743C3.24593 5.34343 3.24377 5.49943 3.30877 5.65543C3.37377 5.81143 3.5016 5.9111 3.69227 5.95443C3.71827 5.9631 3.92627 5.96743 4.31627 5.96743H4.87527V6.52643C4.87527 6.91643 4.8796 7.12443 4.88827 7.15043C4.9316 7.3411 5.03127 7.46893 5.18727 7.53393C5.34327 7.59893 5.49927 7.59677 5.65527 7.52743C5.81127 7.4581 5.91093 7.33243 5.95427 7.15043C5.96293 7.12443 5.96727 6.91643 5.96727 6.52643V5.96743H6.52627C6.91627 5.96743 7.12427 5.9631 7.15027 5.95443C7.34093 5.9111 7.46877 5.81143 7.53377 5.65543C7.59877 5.49943 7.5966 5.34343 7.52727 5.18743C7.45793 5.03143 7.33227 4.93177 7.15027 4.88843C7.12427 4.87977 6.91627 4.87543 6.52627 4.87543H5.96727V4.31643C5.96727 3.92643 5.96293 3.71843 5.95427 3.69243C5.9196 3.5451 5.8351 3.4281 5.70077 3.34143C5.56643 3.25477 5.42993 3.22877 5.29127 3.26343Z" fill="white"/>
</svg>
