<svg width="16" height="16" viewBox="0 0 16 16" fill="none" xmlns="http://www.w3.org/2000/svg">
<path d="M2.66675 13.3334V2.66675H13.3334V13.3334H2.66675ZM3.33341 12.6667H12.6667V4.66675H3.33341V12.6667ZM8.00008 10.6667C7.27697 10.6667 6.62541 10.4814 6.04541 10.1107C5.46541 9.74053 5.02719 9.25919 4.73075 8.66675C5.02719 8.0743 5.46541 7.59297 6.04541 7.22275C6.62541 6.85208 7.27697 6.66675 8.00008 6.66675C8.72319 6.66675 9.37475 6.85208 9.95475 7.22275C10.5347 7.59341 10.973 8.07475 11.2694 8.66675C10.973 9.25919 10.5347 9.74053 9.95475 10.1107C9.37475 10.4814 8.72319 10.6667 8.00008 10.6667ZM8.00008 10.0767C8.52853 10.0767 9.02053 9.95319 9.47608 9.70608C9.93164 9.45897 10.3165 9.11253 10.6307 8.66675C10.3165 8.22142 9.93164 7.87497 9.47608 7.62741C9.02053 7.37986 8.52853 7.2563 8.00008 7.25675C7.47164 7.25719 6.97964 7.38075 6.52408 7.62741C6.06853 7.87408 5.68386 8.22053 5.37008 8.66675C5.6843 9.11208 6.06919 9.45853 6.52475 9.70608C6.9803 9.95364 7.4723 10.0774 8.00075 10.0774M8.00408 9.41075C8.21119 9.41075 8.3863 9.33808 8.52941 9.19275C8.67297 9.04741 8.74475 8.87119 8.74475 8.66408C8.74475 8.45653 8.67208 8.28097 8.52675 8.13741C8.38141 7.99475 8.20519 7.92342 7.99808 7.92342C7.79053 7.92342 7.61497 7.99586 7.47141 8.14075C7.32875 8.28608 7.25741 8.4623 7.25741 8.66941C7.25741 8.87697 7.32986 9.05253 7.47475 9.19608C7.62008 9.33919 7.79697 9.41075 8.00408 9.41075Z" fill="#A1A1A1"/>
</svg>
